<svg xmlns="http://www.w3.org/2000/svg" xmlns:xlink="http://www.w3.org/1999/xlink" version="1.1" width="875.06607" height="291.61769" viewBox="0 0 875.06607 291.61769">
<defs>
<clipPath id="clip_0">
<path transform="matrix(1,0,0,-1,-55.471887,760.7793)" d="M55.471887 469.16163H930.5379V760.7793H55.471887Z" fill-rule="evenodd"/>
</clipPath>
<clipPath id="clip_1">
<path transform="matrix(.001968504,0,0,.001968504,-55.471887,-49.220705)" d="M0 0H731520V411480H0V0Z"/>
</clipPath>
</defs>
<g>
<g clip-path="url(#clip_0)">
<g clip-path="url(#clip_1)">
<path transform="matrix(.001968504,0,0,.001968504,-55.471887,-49.220705)" d="M0 0H731520V411480H0Z" fill="#ffffff" fill-rule="evenodd"/>
<path transform="matrix(.001968504,0,0,.001968504,-55.471887,-49.220705)" d="M5640 5672H490584V155288H5640Z" fill-opacity="0" fill-rule="evenodd"/>
<path transform="matrix(.75,0,0,.75,-44.369524,-38.055349)" d="M71.54224 64.806949H414.43287V426.19563H71.54224V64.806949Z" fill-opacity="0"/>
<text fill="#008d7d" xml:space="preserve" transform="matrix(.75 0 0 .75 -44.369524 -38.055349)" font-size="308" font-family="CambriaMath"><tspan y="304.68" x="71.54224 244.63825">Ca</tspan></text>
<text fill="#008d7d" xml:space="preserve" transform="matrix(.75 0 0 .75 -44.369524 -38.055349)" font-size="308" font-family="CambriaMath"><tspan y="304.68" x="71.54224 244.63825">Ca</tspan></text>
<path transform="matrix(.75,0,0,.75,-44.369524,-38.055349)" d="M414.43287 64.806949H606.6321V426.19563H414.43287V64.806949Z" fill="#010000" fill-opacity="0"/>
<text fill="#474747" xml:space="preserve" transform="matrix(.75 0 0 .75 -44.369524 -38.055349)" font-size="308" font-family="CambriaMath"><tspan y="304.68" x="414.43287">T</tspan></text>
<text fill="#474747" xml:space="preserve" transform="matrix(.75 0 0 .75 -44.369524 -38.055349)" font-size="308" font-family="CambriaMath"><tspan y="304.68" x="414.43287">T</tspan></text>
<path transform="matrix(.75,0,0,.75,-44.369524,-38.055349)" d="M606.6321 64.806949H807.55398V426.19563H606.6321V64.806949Z" fill-opacity="0"/>
<text fill="#0050ab" xml:space="preserve" transform="matrix(.75 0 0 .75 -44.369524 -38.055349)" font-size="308" font-family="CambriaMath"><tspan y="304.68" x="606.6321">R</tspan></text>
<text fill="#0050ab" xml:space="preserve" transform="matrix(.75 0 0 .75 -44.369524 -38.055349)" font-size="308" font-family="CambriaMath"><tspan y="304.68" x="606.6321">R</tspan></text>
<path transform="matrix(.75,0,0,.75,-44.369524,-38.055349)" d="M807.55398 64.806949H1009.0774V426.19563H807.55398V64.806949Z" fill="#010000" fill-opacity="0"/>
<text fill="#c0504d" xml:space="preserve" transform="matrix(.75 0 0 .75 -44.369524 -38.055349)" font-size="308" font-family="CambriaMath"><tspan y="304.68" x="807.55398">A</tspan></text>
<text fill="#c0504d" xml:space="preserve" transform="matrix(.75 0 0 .75 -44.369524 -38.055349)" font-size="308" font-family="CambriaMath"><tspan y="304.68" x="807.55398">A</tspan></text>
<path transform="matrix(.75,0,0,.75,-44.369524,-38.055349)" d="M1009.0774 64.806949H1201.2766V426.19563H1009.0774V64.806949Z" fill-opacity="0"/>
<text fill="#e69138" xml:space="preserve" transform="matrix(.75 0 0 .75 -44.369524 -38.055349)" font-size="308" font-family="CambriaMath"><tspan y="304.68" x="1009.0774">T</tspan></text>
<text fill="#e69138" xml:space="preserve" transform="matrix(.75 0 0 .75 -44.369524 -38.055349)" font-size="308" font-family="CambriaMath"><tspan y="304.68" x="1009.0774">T</tspan></text>
<path transform="matrix(.75,0,0,.75,-44.369524,-38.055349)" d="M1201.2766 64.806949V64.806949 426.19563 64.806949Z" fill="#010000" fill-opacity="0"/>
<path transform="matrix(.75,0,0,.75,-44.369524,-38.055349)" d="M71.54224 324.69999H414.43287V352.41999H71.54224V324.69999Z" fill="#008d7d"/>
<path transform="matrix(.75,0,0,.75,-44.369524,-38.055349)" d="M414.43287 324.69999H606.6321V352.41999H414.43287V324.69999Z" fill="#474747"/>
<path transform="matrix(.75,0,0,.75,-44.369524,-38.055349)" d="M606.6321 324.69999H807.55398V352.41999H606.6321V324.69999Z" fill="#0050ab"/>
<path transform="matrix(.75,0,0,.75,-44.369524,-38.055349)" d="M807.55398 324.69999H1009.0774V352.41999H807.55398V324.69999Z" fill="#c0504d"/>
<path transform="matrix(.75,0,0,.75,-44.369524,-38.055349)" d="M1009.0774 324.69999H1201.2766V352.41999H1009.0774V324.69999Z" fill="#e69138"/>
<path transform="matrix(.001968504,0,0,.001968504,-55.471887,-49.220705)" d="M31566 142482H464658V172338H31566Z" fill-opacity="0" fill-rule="evenodd"/>
<path transform="matrix(.75,0,0,.75,6.665909,231.25568)" d="M25.65094 9H1111.0735V67.399997H25.65094V9Z" fill="#ffffff"/>
<path transform="matrix(.75,0,0,.75,6.665909,231.25568)" d="M25.65094 7.8422777H216.1887V69.00315H25.65094V7.8422777Z" fill-opacity="0"/>
<text fill="#008d7d" xml:space="preserve" transform="matrix(.75 0 0 .75 6.665909 231.25568)" font-size="48.666669" font-family="Merriweather" font-weight="bold" font-style="italic"><tspan y="55.72" x="25.65094 56.018945 84.58628 130.62496 156.02896 176.1283 204.69564">Camera </tspan></text>
<path transform="matrix(.75,0,0,.75,6.665909,231.25568)" d="M216.1887 7.8422777H451.2953V69.00315H216.1887V7.8422777Z" fill="#010000" fill-opacity="0"/>
<text fill="#474747" xml:space="preserve" transform="matrix(.75 0 0 .75 6.665909 231.25568)" font-size="48.666669" font-family="Merriweather" font-weight="bold" font-style="italic"><tspan y="55.72" x="216.1887 247.53003 267.62937 296.1967 324.71537 336.24937 365.44938 394.0167 411.29338 439.8607">Trap data </tspan></text>
<path transform="matrix(.75,0,0,.75,6.665909,231.25568)" d="M451.2953 7.8422777H807.31289V69.00315H451.2953V7.8422777Z" fill-opacity="0"/>
<text fill="#0050ab" xml:space="preserve" transform="matrix(.75 0 0 .75 6.665909 231.25568)" font-size="48.666669" font-family="Merriweather" font-weight="bold" font-style="italic"><tspan y="55.72" x="451.2953 484.82664 510.23063 538.74929 567.41397 588.1946 603.86526 621.1419 649.8066 669.9059 695.89389 707.42788 735.9952 766.65518 795.85519">Repository and </tspan></text>
<path transform="matrix(.75,0,0,.75,6.665909,231.25568)" d="M807.3129 7.8422777H1008.1172V69.00315H807.3129V7.8422777Z" fill="#010000" fill-opacity="0"/>
<text fill="#c0504d" xml:space="preserve" transform="matrix(.75 0 0 .75 6.665909 231.25568)" font-size="48.666669" font-family="Merriweather" font-weight="bold" font-style="italic"><tspan y="55.72" x="807.3129 839.3356 869.9956 898.5629 913.40628 939.3942 960.17489 975.8455 996.62619">Analysis </tspan></text>
<path transform="matrix(.75,0,0,.75,6.665909,231.25568)" d="M1008.1172 7.8422777H1111.0734V69.00315H1008.1172V7.8422777Z" fill-opacity="0"/>
<text fill="#e69138" xml:space="preserve" transform="matrix(.75 0 0 .75 6.665909 231.25568)" font-size="48.666669" font-family="Merriweather" font-weight="bold" font-style="italic"><tspan y="55.72" x="1008.1172 1038.9718 1067.6365 1096.3012">Tool</tspan></text>
</g>
</g>
</g>
</svg>
